<?xml version="1.0" encoding="UTF-8" standalone="no"?>
<!DOCTYPE svg PUBLIC "-//W3C//DTD SVG 1.1//EN"
 "http://www.w3.org/Graphics/SVG/1.1/DTD/svg11.dtd">
<!-- Generated by graphviz version 2.43.0 (0)
 -->
<!-- Title: learning_path Pages: 1 -->
<svg width="571pt" height="108pt"
 viewBox="0.00 0.00 571.00 108.00" xmlns="http://www.w3.org/2000/svg" xmlns:xlink="http://www.w3.org/1999/xlink">
<g id="graph0" class="graph" transform="scale(1 1) rotate(0) translate(4 104)">
<title>learning_path</title>
<polygon fill="white" stroke="transparent" points="-4,4 -4,-104 567,-104 567,4 -4,4"/>
<!-- intro -->
<g id="node1" class="node">
<title>intro</title>
<polygon fill="lightblue" stroke="black" points="87,-38 0,-38 0,0 87,0 87,-38"/>
<text text-anchor="middle" x="43.5" y="-22.8" font-family="Arial" font-size="14.00">Introduction</text>
<text text-anchor="middle" x="43.5" y="-7.8" font-family="Arial" font-size="14.00">to UML</text>
</g>
<!-- clustering -->
<g id="node2" class="node">
<title>clustering</title>
<polygon fill="lightblue" stroke="black" points="204,-38 123,-38 123,0 204,0 204,-38"/>
<text text-anchor="middle" x="163.5" y="-22.8" font-family="Arial" font-size="14.00">Clustering</text>
<text text-anchor="middle" x="163.5" y="-7.8" font-family="Arial" font-size="14.00">Algorithms</text>
</g>
<!-- intro&#45;&gt;clustering -->
<g id="edge1" class="edge">
<title>intro&#45;&gt;clustering</title>
<path fill="none" stroke="black" d="M87.1,-19C95.36,-19 104.09,-19 112.56,-19"/>
<polygon fill="black" stroke="black" points="112.72,-22.5 122.72,-19 112.72,-15.5 112.72,-22.5"/>
</g>
<!-- dim_red -->
<g id="node3" class="node">
<title>dim_red</title>
<polygon fill="lightblue" stroke="black" points="345,-62 240,-62 240,-24 345,-24 345,-62"/>
<text text-anchor="middle" x="292.5" y="-46.8" font-family="Arial" font-size="14.00">Dimensionality</text>
<text text-anchor="middle" x="292.5" y="-31.8" font-family="Arial" font-size="14.00">Reduction</text>
</g>
<!-- clustering&#45;&gt;dim_red -->
<g id="edge2" class="edge">
<title>clustering&#45;&gt;dim_red</title>
<path fill="none" stroke="black" d="M204.34,-26.53C212.39,-28.05 221.03,-29.68 229.64,-31.31"/>
<polygon fill="black" stroke="black" points="229.2,-34.79 239.68,-33.21 230.5,-27.91 229.2,-34.79"/>
</g>
<!-- project -->
<g id="node5" class="node">
<title>project</title>
<polygon fill="lightblue" stroke="black" points="563,-53 503,-53 503,-15 563,-15 563,-53"/>
<text text-anchor="middle" x="533" y="-37.8" font-family="Arial" font-size="14.00">Course</text>
<text text-anchor="middle" x="533" y="-22.8" font-family="Arial" font-size="14.00">Project</text>
</g>
<!-- clustering&#45;&gt;project -->
<g id="edge5" class="edge">
<title>clustering&#45;&gt;project</title>
<path fill="none" stroke="black" stroke-dasharray="5,2" d="M204.06,-16.51C215.64,-15.89 228.32,-15.31 240,-15 286.65,-13.77 298.39,-12.64 345,-15 396.24,-17.6 455.07,-24.17 492.85,-28.86"/>
<polygon fill="black" stroke="black" points="492.56,-32.35 502.92,-30.12 493.43,-25.4 492.56,-32.35"/>
</g>
<!-- assoc -->
<g id="node4" class="node">
<title>assoc</title>
<polygon fill="lightblue" stroke="black" points="467,-100 381,-100 381,-62 467,-62 467,-100"/>
<text text-anchor="middle" x="424" y="-84.8" font-family="Arial" font-size="14.00">Association</text>
<text text-anchor="middle" x="424" y="-69.8" font-family="Arial" font-size="14.00">Rules</text>
</g>
<!-- dim_red&#45;&gt;assoc -->
<g id="edge3" class="edge">
<title>dim_red&#45;&gt;assoc</title>
<path fill="none" stroke="black" d="M345.05,-58.13C353.57,-60.63 362.41,-63.22 370.94,-65.72"/>
<polygon fill="black" stroke="black" points="370.19,-69.15 380.77,-68.61 372.16,-62.43 370.19,-69.15"/>
</g>
<!-- dim_red&#45;&gt;project -->
<g id="edge6" class="edge">
<title>dim_red&#45;&gt;project</title>
<path fill="none" stroke="black" stroke-dasharray="5,2" d="M345.25,-41.05C389.52,-39.38 452.29,-37.01 492.58,-35.49"/>
<polygon fill="black" stroke="black" points="492.95,-38.98 502.81,-35.1 492.69,-31.98 492.95,-38.98"/>
</g>
<!-- assoc&#45;&gt;project -->
<g id="edge4" class="edge">
<title>assoc&#45;&gt;project</title>
<path fill="none" stroke="black" d="M467.29,-62.42C475.95,-58.62 485.02,-54.64 493.53,-50.9"/>
<polygon fill="black" stroke="black" points="495.11,-54.03 502.86,-46.8 492.3,-47.62 495.11,-54.03"/>
</g>
</g>
</svg>
