<?xml version="1.0" encoding="UTF-8" standalone="no"?>
<!DOCTYPE svg PUBLIC "-//W3C//DTD SVG 1.1//EN"
 "http://www.w3.org/Graphics/SVG/1.1/DTD/svg11.dtd">
<!-- Generated by graphviz version 2.43.0 (0)
 -->
<!-- Title: clustering_types Pages: 1 -->
<svg width="650pt" height="120pt"
 viewBox="0.00 0.00 650.00 120.00" xmlns="http://www.w3.org/2000/svg" xmlns:xlink="http://www.w3.org/1999/xlink">
<g id="graph0" class="graph" transform="scale(1 1) rotate(0) translate(4 116)">
<title>clustering_types</title>
<polygon fill="white" stroke="transparent" points="-4,4 -4,-116 646,-116 646,4 -4,4"/>
<!-- clustering -->
<g id="node1" class="node">
<title>clustering</title>
<path fill="lightgreen" stroke="black" d="M369,-112C369,-112 312,-112 312,-112 306,-112 300,-106 300,-100 300,-100 300,-86 300,-86 300,-80 306,-74 312,-74 312,-74 369,-74 369,-74 375,-74 381,-80 381,-86 381,-86 381,-100 381,-100 381,-106 375,-112 369,-112"/>
<text text-anchor="middle" x="340.5" y="-96.8" font-family="Arial" font-size="14.00">Clustering</text>
<text text-anchor="middle" x="340.5" y="-81.8" font-family="Arial" font-size="14.00">Algorithms</text>
</g>
<!-- partition -->
<g id="node2" class="node">
<title>partition</title>
<path fill="lightblue" stroke="black" d="M141,-38C141,-38 12,-38 12,-38 6,-38 0,-32 0,-26 0,-26 0,-12 0,-12 0,-6 6,0 12,0 12,0 141,0 141,0 147,0 153,-6 153,-12 153,-12 153,-26 153,-26 153,-32 147,-38 141,-38"/>
<text text-anchor="middle" x="76.5" y="-22.8" font-family="Arial" font-size="14.00">Partitioning</text>
<text text-anchor="middle" x="76.5" y="-7.8" font-family="Arial" font-size="14.00">(K&#45;Means, K&#45;Medoids)</text>
</g>
<!-- clustering&#45;&gt;partition -->
<g id="edge1" class="edge">
<title>clustering&#45;&gt;partition</title>
<path fill="none" stroke="black" d="M299.83,-80.91C260.65,-70.22 200.43,-53.8 152.39,-40.7"/>
<polygon fill="black" stroke="black" points="153.22,-37.29 142.65,-38.04 151.37,-44.05 153.22,-37.29"/>
</g>
<!-- hierarchical -->
<g id="node3" class="node">
<title>hierarchical</title>
<path fill="lightblue" stroke="black" d="M326,-38C326,-38 183,-38 183,-38 177,-38 171,-32 171,-26 171,-26 171,-12 171,-12 171,-6 177,0 183,0 183,0 326,0 326,0 332,0 338,-6 338,-12 338,-12 338,-26 338,-26 338,-32 332,-38 326,-38"/>
<text text-anchor="middle" x="254.5" y="-22.8" font-family="Arial" font-size="14.00">Hierarchical</text>
<text text-anchor="middle" x="254.5" y="-7.8" font-family="Arial" font-size="14.00">(Agglomerative, Divisive)</text>
</g>
<!-- clustering&#45;&gt;hierarchical -->
<g id="edge2" class="edge">
<title>clustering&#45;&gt;hierarchical</title>
<path fill="none" stroke="black" d="M318.8,-73.83C308.31,-65.05 295.55,-54.37 284.18,-44.85"/>
<polygon fill="black" stroke="black" points="286.11,-41.9 276.19,-38.16 281.62,-47.27 286.11,-41.9"/>
</g>
<!-- density -->
<g id="node4" class="node">
<title>density</title>
<path fill="lightblue" stroke="black" d="M484.5,-38C484.5,-38 368.5,-38 368.5,-38 362.5,-38 356.5,-32 356.5,-26 356.5,-26 356.5,-12 356.5,-12 356.5,-6 362.5,0 368.5,0 368.5,0 484.5,0 484.5,0 490.5,0 496.5,-6 496.5,-12 496.5,-12 496.5,-26 496.5,-26 496.5,-32 490.5,-38 484.5,-38"/>
<text text-anchor="middle" x="426.5" y="-22.8" font-family="Arial" font-size="14.00">Density&#45;Based</text>
<text text-anchor="middle" x="426.5" y="-7.8" font-family="Arial" font-size="14.00">(DBSCAN, OPTICS)</text>
</g>
<!-- clustering&#45;&gt;density -->
<g id="edge3" class="edge">
<title>clustering&#45;&gt;density</title>
<path fill="none" stroke="black" d="M362.2,-73.83C372.69,-65.05 385.45,-54.37 396.82,-44.85"/>
<polygon fill="black" stroke="black" points="399.38,-47.27 404.81,-38.16 394.89,-41.9 399.38,-47.27"/>
</g>
<!-- distribution -->
<g id="node5" class="node">
<title>distribution</title>
<path fill="lightblue" stroke="black" d="M630,-38C630,-38 527,-38 527,-38 521,-38 515,-32 515,-26 515,-26 515,-12 515,-12 515,-6 521,0 527,0 527,0 630,0 630,0 636,0 642,-6 642,-12 642,-12 642,-26 642,-26 642,-32 636,-38 630,-38"/>
<text text-anchor="middle" x="578.5" y="-22.8" font-family="Arial" font-size="14.00">Distribution&#45;Based</text>
<text text-anchor="middle" x="578.5" y="-7.8" font-family="Arial" font-size="14.00">(GMM, EM)</text>
</g>
<!-- clustering&#45;&gt;distribution -->
<g id="edge4" class="edge">
<title>clustering&#45;&gt;distribution</title>
<path fill="none" stroke="black" d="M381.14,-79.7C416.17,-69.11 467.51,-53.58 509.04,-41.01"/>
<polygon fill="black" stroke="black" points="510.27,-44.3 518.83,-38.05 508.25,-37.6 510.27,-44.3"/>
</g>
</g>
</svg>
