<?xml version="1.0" encoding="UTF-8" standalone="no"?>
<!DOCTYPE svg PUBLIC "-//W3C//DTD SVG 1.1//EN"
 "http://www.w3.org/Graphics/SVG/1.1/DTD/svg11.dtd">
<!-- Generated by graphviz version 2.43.0 (0)
 -->
<!-- Title: fptree Pages: 1 -->
<svg width="155pt" height="334pt"
 viewBox="0.00 0.00 155.00 334.00" xmlns="http://www.w3.org/2000/svg" xmlns:xlink="http://www.w3.org/1999/xlink">
<g id="graph0" class="graph" transform="scale(1 1) rotate(0) translate(4 330)">
<title>fptree</title>
<polygon fill="white" stroke="transparent" points="-4,4 -4,-330 151,-330 151,4 -4,4"/>
<!-- root -->
<g id="node1" class="node">
<title>root</title>
<path fill="lightgreen" stroke="black" d="M88,-326C88,-326 58,-326 58,-326 52,-326 46,-320 46,-314 46,-314 46,-300 46,-300 46,-294 52,-288 58,-288 58,-288 88,-288 88,-288 94,-288 100,-294 100,-300 100,-300 100,-314 100,-314 100,-320 94,-326 88,-326"/>
<text text-anchor="middle" x="73" y="-310.8" font-family="Arial" font-size="14.00">Root</text>
<text text-anchor="middle" x="73" y="-295.8" font-family="Arial" font-size="14.00">{}</text>
</g>
<!-- bread1 -->
<g id="node2" class="node">
<title>bread1</title>
<path fill="lightblue" stroke="black" d="M93,-252C93,-252 53,-252 53,-252 47,-252 41,-246 41,-240 41,-240 41,-228 41,-228 41,-222 47,-216 53,-216 53,-216 93,-216 93,-216 99,-216 105,-222 105,-228 105,-228 105,-240 105,-240 105,-246 99,-252 93,-252"/>
<text text-anchor="middle" x="73" y="-230.3" font-family="Arial" font-size="14.00">Bread:4</text>
</g>
<!-- root&#45;&gt;bread1 -->
<g id="edge1" class="edge">
<title>root&#45;&gt;bread1</title>
<path fill="none" stroke="black" d="M73,-287.72C73,-279.97 73,-270.79 73,-262.27"/>
<polygon fill="black" stroke="black" points="76.5,-262 73,-252 69.5,-262 76.5,-262"/>
</g>
<!-- milk1 -->
<g id="node3" class="node">
<title>milk1</title>
<path fill="lightblue" stroke="black" d="M49,-180C49,-180 19,-180 19,-180 13,-180 7,-174 7,-168 7,-168 7,-156 7,-156 7,-150 13,-144 19,-144 19,-144 49,-144 49,-144 55,-144 61,-150 61,-156 61,-156 61,-168 61,-168 61,-174 55,-180 49,-180"/>
<text text-anchor="middle" x="34" y="-158.3" font-family="Arial" font-size="14.00">Milk:3</text>
</g>
<!-- bread1&#45;&gt;milk1 -->
<g id="edge2" class="edge">
<title>bread1&#45;&gt;milk1</title>
<path fill="none" stroke="black" d="M63.36,-215.7C58.87,-207.64 53.44,-197.89 48.48,-188.98"/>
<polygon fill="black" stroke="black" points="51.45,-187.14 43.53,-180.1 45.34,-190.54 51.45,-187.14"/>
</g>
<!-- diaper2 -->
<g id="node6" class="node">
<title>diaper2</title>
<path fill="lightblue" stroke="black" d="M135,-180C135,-180 91,-180 91,-180 85,-180 79,-174 79,-168 79,-168 79,-156 79,-156 79,-150 85,-144 91,-144 91,-144 135,-144 135,-144 141,-144 147,-150 147,-156 147,-156 147,-168 147,-168 147,-174 141,-180 135,-180"/>
<text text-anchor="middle" x="113" y="-158.3" font-family="Arial" font-size="14.00">Diaper:1</text>
</g>
<!-- bread1&#45;&gt;diaper2 -->
<g id="edge5" class="edge">
<title>bread1&#45;&gt;diaper2</title>
<path fill="none" stroke="black" d="M82.89,-215.7C87.49,-207.64 93.06,-197.89 98.15,-188.98"/>
<polygon fill="black" stroke="black" points="101.3,-190.52 103.23,-180.1 95.23,-187.05 101.3,-190.52"/>
</g>
<!-- diaper1 -->
<g id="node4" class="node">
<title>diaper1</title>
<path fill="lightblue" stroke="black" d="M56,-108C56,-108 12,-108 12,-108 6,-108 0,-102 0,-96 0,-96 0,-84 0,-84 0,-78 6,-72 12,-72 12,-72 56,-72 56,-72 62,-72 68,-78 68,-84 68,-84 68,-96 68,-96 68,-102 62,-108 56,-108"/>
<text text-anchor="middle" x="34" y="-86.3" font-family="Arial" font-size="14.00">Diaper:3</text>
</g>
<!-- milk1&#45;&gt;diaper1 -->
<g id="edge3" class="edge">
<title>milk1&#45;&gt;diaper1</title>
<path fill="none" stroke="black" d="M34,-143.7C34,-135.98 34,-126.71 34,-118.11"/>
<polygon fill="black" stroke="black" points="37.5,-118.1 34,-108.1 30.5,-118.1 37.5,-118.1"/>
</g>
<!-- beer1 -->
<g id="node7" class="node">
<title>beer1</title>
<path fill="lightblue" stroke="black" d="M50,-36C50,-36 18,-36 18,-36 12,-36 6,-30 6,-24 6,-24 6,-12 6,-12 6,-6 12,0 18,0 18,0 50,0 50,0 56,0 62,-6 62,-12 62,-12 62,-24 62,-24 62,-30 56,-36 50,-36"/>
<text text-anchor="middle" x="34" y="-14.3" font-family="Arial" font-size="14.00">Beer:3</text>
</g>
<!-- diaper1&#45;&gt;beer1 -->
<g id="edge4" class="edge">
<title>diaper1&#45;&gt;beer1</title>
<path fill="none" stroke="black" d="M34,-71.7C34,-63.98 34,-54.71 34,-46.11"/>
<polygon fill="black" stroke="black" points="37.5,-46.1 34,-36.1 30.5,-46.1 37.5,-46.1"/>
</g>
<!-- milk2 -->
<g id="node5" class="node">
<title>milk2</title>
<path fill="lightblue" stroke="black" d="M128,-108C128,-108 98,-108 98,-108 92,-108 86,-102 86,-96 86,-96 86,-84 86,-84 86,-78 92,-72 98,-72 98,-72 128,-72 128,-72 134,-72 140,-78 140,-84 140,-84 140,-96 140,-96 140,-102 134,-108 128,-108"/>
<text text-anchor="middle" x="113" y="-86.3" font-family="Arial" font-size="14.00">Milk:1</text>
</g>
<!-- diaper2&#45;&gt;milk2 -->
<g id="edge6" class="edge">
<title>diaper2&#45;&gt;milk2</title>
<path fill="none" stroke="black" d="M113,-143.7C113,-135.98 113,-126.71 113,-118.11"/>
<polygon fill="black" stroke="black" points="116.5,-118.1 113,-108.1 109.5,-118.1 116.5,-118.1"/>
</g>
</g>
</svg>
