<?xml version="1.0" encoding="UTF-8" standalone="no"?>
<!DOCTYPE svg PUBLIC "-//W3C//DTD SVG 1.1//EN"
 "http://www.w3.org/Graphics/SVG/1.1/DTD/svg11.dtd">
<!-- Generated by graphviz version 2.43.0 (0)
 -->
<!-- Title: autoencoder Pages: 1 -->
<svg width="552pt" height="61pt"
 viewBox="0.00 0.00 552.00 61.00" xmlns="http://www.w3.org/2000/svg" xmlns:xlink="http://www.w3.org/1999/xlink">
<g id="graph0" class="graph" transform="scale(1 1) rotate(0) translate(4 57)">
<title>autoencoder</title>
<polygon fill="white" stroke="transparent" points="-4,4 -4,-57 548,-57 548,4 -4,4"/>
<!-- input -->
<g id="node1" class="node">
<title>input</title>
<path fill="lightblue" stroke="black" d="M50,-45.5C50,-45.5 12,-45.5 12,-45.5 6,-45.5 0,-39.5 0,-33.5 0,-33.5 0,-19.5 0,-19.5 0,-13.5 6,-7.5 12,-7.5 12,-7.5 50,-7.5 50,-7.5 56,-7.5 62,-13.5 62,-19.5 62,-19.5 62,-33.5 62,-33.5 62,-39.5 56,-45.5 50,-45.5"/>
<text text-anchor="middle" x="31" y="-30.3" font-family="Arial" font-size="14.00">Input</text>
<text text-anchor="middle" x="31" y="-15.3" font-family="Arial" font-size="14.00">X ∈ ℝᵈ</text>
</g>
<!-- encoder -->
<g id="node2" class="node">
<title>encoder</title>
<path fill="lightgreen" stroke="black" d="M153,-45.5C153,-45.5 110,-45.5 110,-45.5 104,-45.5 98,-39.5 98,-33.5 98,-33.5 98,-19.5 98,-19.5 98,-13.5 104,-7.5 110,-7.5 110,-7.5 153,-7.5 153,-7.5 159,-7.5 165,-13.5 165,-19.5 165,-19.5 165,-33.5 165,-33.5 165,-39.5 159,-45.5 153,-45.5"/>
<text text-anchor="middle" x="131.5" y="-30.3" font-family="Arial" font-size="14.00">Encoder</text>
<text text-anchor="middle" x="131.5" y="-15.3" font-family="Arial" font-size="14.00">φ(X)</text>
</g>
<!-- input&#45;&gt;encoder -->
<g id="edge1" class="edge">
<title>input&#45;&gt;encoder</title>
<path fill="none" stroke="black" d="M62.09,-26.5C70.13,-26.5 78.99,-26.5 87.58,-26.5"/>
<polygon fill="black" stroke="black" points="87.85,-30 97.85,-26.5 87.85,-23 87.85,-30"/>
</g>
<!-- latent -->
<g id="node3" class="node">
<title>latent</title>
<path fill="yellow" stroke="black" d="M285,-53C285,-53 213,-53 213,-53 207,-53 201,-47 201,-41 201,-41 201,-12 201,-12 201,-6 207,0 213,0 213,0 285,0 285,0 291,0 297,-6 297,-12 297,-12 297,-41 297,-41 297,-47 291,-53 285,-53"/>
<text text-anchor="middle" x="249" y="-37.8" font-family="Arial" font-size="14.00">Latent Space</text>
<text text-anchor="middle" x="249" y="-22.8" font-family="Arial" font-size="14.00">Z ∈ ℝᵏ</text>
<text text-anchor="middle" x="249" y="-7.8" font-family="Arial" font-size="14.00">(k &lt;&lt; d)</text>
</g>
<!-- encoder&#45;&gt;latent -->
<g id="edge2" class="edge">
<title>encoder&#45;&gt;latent</title>
<path fill="none" stroke="black" d="M165.29,-26.5C173.25,-26.5 181.99,-26.5 190.71,-26.5"/>
<polygon fill="black" stroke="black" points="190.9,-30 200.9,-26.5 190.9,-23 190.9,-30"/>
</g>
<!-- decoder -->
<g id="node4" class="node">
<title>decoder</title>
<path fill="lightcoral" stroke="black" d="M389,-45.5C389,-45.5 345,-45.5 345,-45.5 339,-45.5 333,-39.5 333,-33.5 333,-33.5 333,-19.5 333,-19.5 333,-13.5 339,-7.5 345,-7.5 345,-7.5 389,-7.5 389,-7.5 395,-7.5 401,-13.5 401,-19.5 401,-19.5 401,-33.5 401,-33.5 401,-39.5 395,-45.5 389,-45.5"/>
<text text-anchor="middle" x="367" y="-30.3" font-family="Arial" font-size="14.00">Decoder</text>
<text text-anchor="middle" x="367" y="-15.3" font-family="Arial" font-size="14.00">ψ(Z)</text>
</g>
<!-- latent&#45;&gt;decoder -->
<g id="edge3" class="edge">
<title>latent&#45;&gt;decoder</title>
<path fill="none" stroke="black" d="M297.18,-26.5C305.56,-26.5 314.25,-26.5 322.52,-26.5"/>
<polygon fill="black" stroke="black" points="322.72,-30 332.72,-26.5 322.72,-23 322.72,-30"/>
</g>
<!-- output -->
<g id="node5" class="node">
<title>output</title>
<path fill="lightblue" stroke="black" d="M532,-45.5C532,-45.5 449,-45.5 449,-45.5 443,-45.5 437,-39.5 437,-33.5 437,-33.5 437,-19.5 437,-19.5 437,-13.5 443,-7.5 449,-7.5 449,-7.5 532,-7.5 532,-7.5 538,-7.5 544,-13.5 544,-19.5 544,-19.5 544,-33.5 544,-33.5 544,-39.5 538,-45.5 532,-45.5"/>
<text text-anchor="middle" x="490.5" y="-30.3" font-family="Arial" font-size="14.00">Reconstruction</text>
<text text-anchor="middle" x="490.5" y="-15.3" font-family="Arial" font-size="14.00">X̂ ∈ ℝᵈ</text>
</g>
<!-- decoder&#45;&gt;output -->
<g id="edge4" class="edge">
<title>decoder&#45;&gt;output</title>
<path fill="none" stroke="black" d="M401.2,-26.5C409.08,-26.5 417.74,-26.5 426.47,-26.5"/>
<polygon fill="black" stroke="black" points="426.69,-30 436.69,-26.5 426.69,-23 426.69,-30"/>
</g>
</g>
</svg>
