<?xml version="1.0" encoding="UTF-8" standalone="no"?>
<!DOCTYPE svg PUBLIC "-//W3C//DTD SVG 1.1//EN"
 "http://www.w3.org/Graphics/SVG/1.1/DTD/svg11.dtd">
<!-- Generated by graphviz version 2.43.0 (0)
 -->
<!-- Title: pca_process Pages: 1 -->
<svg width="1171pt" height="46pt"
 viewBox="0.00 0.00 1171.00 46.00" xmlns="http://www.w3.org/2000/svg" xmlns:xlink="http://www.w3.org/1999/xlink">
<g id="graph0" class="graph" transform="scale(1 1) rotate(0) translate(4 42)">
<title>pca_process</title>
<polygon fill="white" stroke="transparent" points="-4,4 -4,-42 1167,-42 1167,4 -4,4"/>
<!-- original -->
<g id="node1" class="node">
<title>original</title>
<path fill="lightblue" stroke="black" d="M120,-38C120,-38 12,-38 12,-38 6,-38 0,-32 0,-26 0,-26 0,-12 0,-12 0,-6 6,0 12,0 12,0 120,0 120,0 126,0 132,-6 132,-12 132,-12 132,-26 132,-26 132,-32 126,-38 120,-38"/>
<text text-anchor="middle" x="66" y="-22.8" font-family="Arial" font-size="14.00">Original Data</text>
<text text-anchor="middle" x="66" y="-7.8" font-family="Arial" font-size="14.00">(High Dimensional)</text>
</g>
<!-- centered -->
<g id="node2" class="node">
<title>centered</title>
<path fill="lightblue" stroke="black" d="M357,-37C357,-37 277,-37 277,-37 271,-37 265,-31 265,-25 265,-25 265,-13 265,-13 265,-7 271,-1 277,-1 277,-1 357,-1 357,-1 363,-1 369,-7 369,-13 369,-13 369,-25 369,-25 369,-31 363,-37 357,-37"/>
<text text-anchor="middle" x="317" y="-15.3" font-family="Arial" font-size="14.00">Centered Data</text>
</g>
<!-- original&#45;&gt;centered -->
<g id="edge1" class="edge">
<title>original&#45;&gt;centered</title>
<path fill="none" stroke="black" d="M132.1,-19C169.9,-19 217.24,-19 254.43,-19"/>
<polygon fill="black" stroke="black" points="254.63,-22.5 264.63,-19 254.63,-15.5 254.63,-22.5"/>
<text text-anchor="middle" x="198.5" y="-22.8" font-family="Arial" font-size="14.00">Mean Centering</text>
</g>
<!-- cov -->
<g id="node3" class="node">
<title>cov</title>
<path fill="lightblue" stroke="black" d="M562,-38C562,-38 501,-38 501,-38 495,-38 489,-32 489,-26 489,-26 489,-12 489,-12 489,-6 495,0 501,0 501,0 562,0 562,0 568,0 574,-6 574,-12 574,-12 574,-26 574,-26 574,-32 568,-38 562,-38"/>
<text text-anchor="middle" x="531.5" y="-22.8" font-family="Arial" font-size="14.00">Covariance</text>
<text text-anchor="middle" x="531.5" y="-7.8" font-family="Arial" font-size="14.00">Matrix</text>
</g>
<!-- centered&#45;&gt;cov -->
<g id="edge2" class="edge">
<title>centered&#45;&gt;cov</title>
<path fill="none" stroke="black" d="M369.17,-19C402.19,-19 445.03,-19 478.26,-19"/>
<polygon fill="black" stroke="black" points="478.69,-22.5 488.69,-19 478.69,-15.5 478.69,-22.5"/>
<text text-anchor="middle" x="429" y="-22.8" font-family="Arial" font-size="14.00">Compute Cov</text>
</g>
<!-- eigen -->
<g id="node4" class="node">
<title>eigen</title>
<path fill="lightblue" stroke="black" d="M739,-38C739,-38 656,-38 656,-38 650,-38 644,-32 644,-26 644,-26 644,-12 644,-12 644,-6 650,0 656,0 656,0 739,0 739,0 745,0 751,-6 751,-12 751,-12 751,-26 751,-26 751,-32 745,-38 739,-38"/>
<text text-anchor="middle" x="697.5" y="-22.8" font-family="Arial" font-size="14.00">Eigen</text>
<text text-anchor="middle" x="697.5" y="-7.8" font-family="Arial" font-size="14.00">Decomposition</text>
</g>
<!-- cov&#45;&gt;eigen -->
<g id="edge3" class="edge">
<title>cov&#45;&gt;eigen</title>
<path fill="none" stroke="black" d="M574.31,-19C592.33,-19 613.79,-19 633.66,-19"/>
<polygon fill="black" stroke="black" points="633.88,-22.5 643.88,-19 633.88,-15.5 633.88,-22.5"/>
<text text-anchor="middle" x="609" y="-22.8" font-family="Arial" font-size="14.00">Solve</text>
</g>
<!-- select -->
<g id="node5" class="node">
<title>select</title>
<path fill="lightblue" stroke="black" d="M923,-38C923,-38 853,-38 853,-38 847,-38 841,-32 841,-26 841,-26 841,-12 841,-12 841,-6 847,0 853,0 853,0 923,0 923,0 929,0 935,-6 935,-12 935,-12 935,-26 935,-26 935,-32 929,-38 923,-38"/>
<text text-anchor="middle" x="888" y="-22.8" font-family="Arial" font-size="14.00">Select Top&#45;k</text>
<text text-anchor="middle" x="888" y="-7.8" font-family="Arial" font-size="14.00">Components</text>
</g>
<!-- eigen&#45;&gt;select -->
<g id="edge4" class="edge">
<title>eigen&#45;&gt;select</title>
<path fill="none" stroke="black" d="M751.01,-19C775.81,-19 805.44,-19 830.7,-19"/>
<polygon fill="black" stroke="black" points="830.87,-22.5 840.87,-19 830.87,-15.5 830.87,-22.5"/>
<text text-anchor="middle" x="796" y="-22.8" font-family="Arial" font-size="14.00">Sort by λ</text>
</g>
<!-- project -->
<g id="node6" class="node">
<title>project</title>
<path fill="lightblue" stroke="black" d="M1151,-38C1151,-38 1046,-38 1046,-38 1040,-38 1034,-32 1034,-26 1034,-26 1034,-12 1034,-12 1034,-6 1040,0 1046,0 1046,0 1151,0 1151,0 1157,0 1163,-6 1163,-12 1163,-12 1163,-26 1163,-26 1163,-32 1157,-38 1151,-38"/>
<text text-anchor="middle" x="1098.5" y="-22.8" font-family="Arial" font-size="14.00">Projected Data</text>
<text text-anchor="middle" x="1098.5" y="-7.8" font-family="Arial" font-size="14.00">(Low Dimensional)</text>
</g>
<!-- select&#45;&gt;project -->
<g id="edge5" class="edge">
<title>select&#45;&gt;project</title>
<path fill="none" stroke="black" d="M935.01,-19C960.98,-19 994.03,-19 1023.54,-19"/>
<polygon fill="black" stroke="black" points="1023.81,-22.5 1033.81,-19 1023.81,-15.5 1023.81,-22.5"/>
<text text-anchor="middle" x="984.5" y="-22.8" font-family="Arial" font-size="14.00">Transform</text>
</g>
</g>
</svg>
