<?xml version="1.0" encoding="UTF-8" standalone="no"?>
<!DOCTYPE svg PUBLIC "-//W3C//DTD SVG 1.1//EN"
 "http://www.w3.org/Graphics/SVG/1.1/DTD/svg11.dtd">
<!-- Generated by graphviz version 2.43.0 (0)
 -->
<!-- Title: dim_reduction Pages: 1 -->
<svg width="470pt" height="190pt"
 viewBox="0.00 0.00 470.00 190.00" xmlns="http://www.w3.org/2000/svg" xmlns:xlink="http://www.w3.org/1999/xlink">
<g id="graph0" class="graph" transform="scale(1 1) rotate(0) translate(4 186)">
<title>dim_reduction</title>
<polygon fill="white" stroke="transparent" points="-4,4 -4,-186 466,-186 466,4 -4,4"/>
<!-- dr -->
<g id="node1" class="node">
<title>dr</title>
<path fill="lightgreen" stroke="black" d="M211.5,-182C211.5,-182 130.5,-182 130.5,-182 124.5,-182 118.5,-176 118.5,-170 118.5,-170 118.5,-156 118.5,-156 118.5,-150 124.5,-144 130.5,-144 130.5,-144 211.5,-144 211.5,-144 217.5,-144 223.5,-150 223.5,-156 223.5,-156 223.5,-170 223.5,-170 223.5,-176 217.5,-182 211.5,-182"/>
<text text-anchor="middle" x="171" y="-166.8" font-family="Arial" font-size="14.00">Dimensionality</text>
<text text-anchor="middle" x="171" y="-151.8" font-family="Arial" font-size="14.00">Reduction</text>
</g>
<!-- linear -->
<g id="node2" class="node">
<title>linear</title>
<path fill="lightblue" stroke="black" d="M142,-108C142,-108 56,-108 56,-108 50,-108 44,-102 44,-96 44,-96 44,-84 44,-84 44,-78 50,-72 56,-72 56,-72 142,-72 142,-72 148,-72 154,-78 154,-84 154,-84 154,-96 154,-96 154,-102 148,-108 142,-108"/>
<text text-anchor="middle" x="99" y="-86.3" font-family="Arial" font-size="14.00">Linear Methods</text>
</g>
<!-- dr&#45;&gt;linear -->
<g id="edge1" class="edge">
<title>dr&#45;&gt;linear</title>
<path fill="none" stroke="black" d="M152.46,-143.72C143.65,-135.03 133,-124.52 123.53,-115.19"/>
<polygon fill="black" stroke="black" points="125.82,-112.53 116.24,-108 120.91,-117.52 125.82,-112.53"/>
</g>
<!-- nonlinear -->
<g id="node3" class="node">
<title>nonlinear</title>
<path fill="lightblue" stroke="black" d="M337,-108C337,-108 221,-108 221,-108 215,-108 209,-102 209,-96 209,-96 209,-84 209,-84 209,-78 215,-72 221,-72 221,-72 337,-72 337,-72 343,-72 349,-78 349,-84 349,-84 349,-96 349,-96 349,-102 343,-108 337,-108"/>
<text text-anchor="middle" x="279" y="-86.3" font-family="Arial" font-size="14.00">Non&#45;Linear Methods</text>
</g>
<!-- dr&#45;&gt;nonlinear -->
<g id="edge2" class="edge">
<title>dr&#45;&gt;nonlinear</title>
<path fill="none" stroke="black" d="M198.53,-143.9C212.53,-134.7 229.69,-123.42 244.56,-113.64"/>
<polygon fill="black" stroke="black" points="246.57,-116.51 253,-108.09 242.73,-110.66 246.57,-116.51"/>
</g>
<!-- pca -->
<g id="node4" class="node">
<title>pca</title>
<path fill="lightblue" stroke="black" d="M42,-36C42,-36 12,-36 12,-36 6,-36 0,-30 0,-24 0,-24 0,-12 0,-12 0,-6 6,0 12,0 12,0 42,0 42,0 48,0 54,-6 54,-12 54,-12 54,-24 54,-24 54,-30 48,-36 42,-36"/>
<text text-anchor="middle" x="27" y="-14.3" font-family="Arial" font-size="14.00">PCA</text>
</g>
<!-- linear&#45;&gt;pca -->
<g id="edge3" class="edge">
<title>linear&#45;&gt;pca</title>
<path fill="none" stroke="black" d="M81.2,-71.7C72.4,-63.14 61.62,-52.66 52,-43.3"/>
<polygon fill="black" stroke="black" points="54.2,-40.57 44.59,-36.1 49.32,-45.58 54.2,-40.57"/>
</g>
<!-- svd -->
<g id="node5" class="node">
<title>svd</title>
<path fill="lightblue" stroke="black" d="M114,-36C114,-36 84,-36 84,-36 78,-36 72,-30 72,-24 72,-24 72,-12 72,-12 72,-6 78,0 84,0 84,0 114,0 114,0 120,0 126,-6 126,-12 126,-12 126,-24 126,-24 126,-30 120,-36 114,-36"/>
<text text-anchor="middle" x="99" y="-14.3" font-family="Arial" font-size="14.00">SVD</text>
</g>
<!-- linear&#45;&gt;svd -->
<g id="edge4" class="edge">
<title>linear&#45;&gt;svd</title>
<path fill="none" stroke="black" d="M99,-71.7C99,-63.98 99,-54.71 99,-46.11"/>
<polygon fill="black" stroke="black" points="102.5,-46.1 99,-36.1 95.5,-46.1 102.5,-46.1"/>
</g>
<!-- lda -->
<g id="node6" class="node">
<title>lda</title>
<path fill="lightblue" stroke="black" d="M186,-36C186,-36 156,-36 156,-36 150,-36 144,-30 144,-24 144,-24 144,-12 144,-12 144,-6 150,0 156,0 156,0 186,0 186,0 192,0 198,-6 198,-12 198,-12 198,-24 198,-24 198,-30 192,-36 186,-36"/>
<text text-anchor="middle" x="171" y="-14.3" font-family="Arial" font-size="14.00">LDA</text>
</g>
<!-- linear&#45;&gt;lda -->
<g id="edge5" class="edge">
<title>linear&#45;&gt;lda</title>
<path fill="none" stroke="black" d="M116.8,-71.7C125.6,-63.14 136.38,-52.66 146,-43.3"/>
<polygon fill="black" stroke="black" points="148.68,-45.58 153.41,-36.1 143.8,-40.57 148.68,-45.58"/>
</g>
<!-- tsne -->
<g id="node7" class="node">
<title>tsne</title>
<path fill="lightblue" stroke="black" d="M258,-36C258,-36 228,-36 228,-36 222,-36 216,-30 216,-24 216,-24 216,-12 216,-12 216,-6 222,0 228,0 228,0 258,0 258,0 264,0 270,-6 270,-12 270,-12 270,-24 270,-24 270,-30 264,-36 258,-36"/>
<text text-anchor="middle" x="243" y="-14.3" font-family="Arial" font-size="14.00">t&#45;SNE</text>
</g>
<!-- nonlinear&#45;&gt;tsne -->
<g id="edge6" class="edge">
<title>nonlinear&#45;&gt;tsne</title>
<path fill="none" stroke="black" d="M270.1,-71.7C266,-63.73 261.05,-54.1 256.51,-45.26"/>
<polygon fill="black" stroke="black" points="259.48,-43.4 251.8,-36.1 253.26,-46.6 259.48,-43.4"/>
</g>
<!-- umap -->
<g id="node8" class="node">
<title>umap</title>
<path fill="lightblue" stroke="black" d="M332,-36C332,-36 300,-36 300,-36 294,-36 288,-30 288,-24 288,-24 288,-12 288,-12 288,-6 294,0 300,0 300,0 332,0 332,0 338,0 344,-6 344,-12 344,-12 344,-24 344,-24 344,-30 338,-36 332,-36"/>
<text text-anchor="middle" x="316" y="-14.3" font-family="Arial" font-size="14.00">UMAP</text>
</g>
<!-- nonlinear&#45;&gt;umap -->
<g id="edge7" class="edge">
<title>nonlinear&#45;&gt;umap</title>
<path fill="none" stroke="black" d="M288.15,-71.7C292.4,-63.64 297.56,-53.89 302.27,-44.98"/>
<polygon fill="black" stroke="black" points="305.38,-46.58 306.96,-36.1 299.19,-43.31 305.38,-46.58"/>
</g>
<!-- autoencoder -->
<g id="node9" class="node">
<title>autoencoder</title>
<path fill="lightblue" stroke="black" d="M450,-36C450,-36 374,-36 374,-36 368,-36 362,-30 362,-24 362,-24 362,-12 362,-12 362,-6 368,0 374,0 374,0 450,0 450,0 456,0 462,-6 462,-12 462,-12 462,-24 462,-24 462,-30 456,-36 450,-36"/>
<text text-anchor="middle" x="412" y="-14.3" font-family="Arial" font-size="14.00">Autoencoders</text>
</g>
<!-- nonlinear&#45;&gt;autoencoder -->
<g id="edge8" class="edge">
<title>nonlinear&#45;&gt;autoencoder</title>
<path fill="none" stroke="black" d="M311.54,-71.88C329.25,-62.55 351.35,-50.92 370.32,-40.94"/>
<polygon fill="black" stroke="black" points="372.12,-43.94 379.34,-36.19 368.86,-37.75 372.12,-43.94"/>
</g>
</g>
</svg>
